<svg width="76" height="76" viewBox="0 0 76 76" fill="none" xmlns="http://www.w3.org/2000/svg">
<circle cx="38" cy="38" r="35.5" fill="#002746" stroke="#FCC962" stroke-width="5"/>
<path d="M26.5798 26.7143H30.45V33.7857H22.1736L24.4061 28.1949C24.7586 27.3036 25.6178 26.7143 26.5798 26.7143ZM33.975 33.7857V26.7143H39.9381C40.6505 26.7143 41.3261 27.0384 41.7741 27.5982L46.7091 33.7857H33.975ZM52.7897 33.8594L45.4459 24.6518C44.1094 22.9723 42.0825 22 39.9381 22H26.5798C23.6937 22 21.1014 23.7605 20.0366 26.4417L16.9816 34.1098C15.2337 34.8022 14 36.5038 14 38.5V46.75C14 48.0538 15.0502 49.1071 16.35 49.1071H18.7955C19.3536 52.4513 22.2544 55 25.75 55C29.2456 55 32.1464 52.4513 32.7045 49.1071H42.2955C42.8536 52.4513 45.7544 55 49.25 55C52.7456 55 55.6464 52.4513 56.2045 49.1071H58.65C59.9498 49.1071 61 48.0538 61 46.75V43.2143C61 38.4116 57.4162 34.4487 52.7897 33.8594ZM52.5767 49.1071C52.092 50.4772 50.7848 51.4643 49.25 51.4643C47.7152 51.4643 46.408 50.4772 45.9233 49.1071C45.7911 48.7388 45.725 48.3411 45.725 47.9286C45.725 45.9766 47.3039 44.3929 49.25 44.3929C51.1961 44.3929 52.775 45.9766 52.775 47.9286C52.775 48.3411 52.7016 48.7388 52.5767 49.1071V49.1071ZM25.75 51.4643C24.2152 51.4643 22.908 50.4772 22.4233 49.1071C22.2911 48.7388 22.225 48.3411 22.225 47.9286C22.225 45.9766 23.8039 44.3929 25.75 44.3929C27.6961 44.3929 29.275 45.9766 29.275 47.9286C29.275 48.3411 29.2016 48.7388 29.0767 49.1071C28.592 50.4772 27.2848 51.4643 25.75 51.4643Z" fill="#FCC962"/>
</svg>
