<svg width="93" height="93" viewBox="0 0 93 93" fill="none" xmlns="http://www.w3.org/2000/svg">
<path d="M39.9838 34.3939C40.4767 33.9122 40.6106 33.1439 40.2629 32.5102C39.8445 31.7476 38.8871 31.4686 38.1245 31.887C37.3619 32.3054 37.0829 33.2628 37.5013 34.0254C37.822 34.61 38.4595 34.9104 39.0831 34.8303L41.0004 38.4076L34.0221 42.2365C33.5379 42.5021 33.3564 43.114 33.6736 43.5661C34.8558 45.2516 36.5819 46.4952 38.5774 47.0767C39.8697 47.4533 41.2159 47.535 42.521 47.3322L47.497 56.4011C47.7626 56.8853 48.3705 57.0624 48.8547 56.7968L52.3615 54.8726C52.8457 54.607 53.0229 53.9991 52.7572 53.5149L47.8149 44.5073C48.7582 43.4838 49.4632 42.2476 49.86 40.8862C50.4415 38.8907 50.3198 36.7668 49.5334 34.8641C49.3224 34.3537 48.7089 34.1781 48.2247 34.4438L41.8772 37.9265L39.9838 34.3939Z" fill="#FCC962"/>
<path d="M41.4217 50.8375C41.156 50.3533 40.5482 50.1761 40.064 50.4418L29.2367 56.3825C28.7525 56.6482 28.5753 57.2561 28.841 57.7403L31.9196 63.3512C32.1853 63.8354 32.7932 64.0125 33.2773 63.7468L44.1046 57.8061C44.5888 57.5405 44.766 56.9326 44.5003 56.4484L41.4217 50.8375Z" fill="#FCC962"/>
<path d="M63.3843 37.6463C63.8685 37.3807 64.4764 37.5578 64.742 38.042L67.8206 43.6529C68.0863 44.1371 67.9091 44.745 67.4249 45.0106L56.5977 50.9514C56.1135 51.217 55.5056 51.0399 55.2399 50.5557L52.1613 44.9448C51.8957 44.4606 52.0728 43.8527 52.557 43.5871L63.3843 37.6463Z" fill="#FCC962"/>
</svg>
