<svg width="93" height="93" viewBox="0 0 93 93" fill="none" xmlns="http://www.w3.org/2000/svg">
<path d="M39.9845 34.3937C40.4774 33.9121 40.6114 33.1438 40.2636 32.51C39.8452 31.7474 38.8878 31.4684 38.1252 31.8868C37.3626 32.3052 37.0836 33.2626 37.502 34.0252C37.8228 34.6098 38.4602 34.9102 39.0838 34.8302L41.0012 38.4074L34.0228 42.2363C33.5386 42.502 33.3572 43.1138 33.6743 43.5659C34.8566 45.2514 36.5827 46.495 38.5781 47.0765C39.8704 47.4531 41.2167 47.5348 42.5218 47.332L47.4977 56.4009C47.7634 56.8851 48.3713 57.0622 48.8554 56.7966L52.3623 54.8725C52.8465 54.6068 53.0236 53.9989 52.7579 53.5147L47.8156 44.5071C48.7589 43.4836 49.4639 42.2475 49.8607 40.886C50.4422 38.8906 50.3206 36.7666 49.5341 34.864C49.3232 34.3536 48.7096 34.1779 48.2254 34.4436L41.8779 37.9263L39.9845 34.3937Z" fill="#3B97A0"/>
<path d="M41.4224 50.8373C41.1568 50.3531 40.5489 50.176 40.0647 50.4416L29.2374 56.3823C28.7532 56.648 28.5761 57.2559 28.8417 57.7401L31.9203 63.351C32.186 63.8352 32.7939 64.0123 33.2781 63.7467L44.1054 57.8059C44.5896 57.5403 44.7667 56.9324 44.501 56.4482L41.4224 50.8373Z" fill="#3B97A0"/>
<path d="M63.385 37.6462C63.8692 37.3805 64.4771 37.5576 64.7428 38.0418L67.8214 43.6527C68.087 44.1369 67.9099 44.7448 67.4257 45.0105L56.5984 50.9512C56.1142 51.2169 55.5063 51.0397 55.2407 50.5555L52.1621 44.9446C51.8964 44.4604 52.0735 43.8525 52.5577 43.5869L63.385 37.6462Z" fill="#3B97A0"/>
</svg>
