<svg width="50" height="50" viewBox="0 0 50 50" fill="none" xmlns="http://www.w3.org/2000/svg">
<path d="M20.6644 12.6953C20.1405 11.083 17.8595 11.083 17.3357 12.6953L14.919 20.133C14.8856 20.236 14.7896 20.3057 14.6813 20.3057H6.86081C5.16555 20.3057 4.46067 22.475 5.83218 23.4715L12.1591 28.0682C12.2467 28.1319 12.2833 28.2447 12.2499 28.3478L9.83323 35.7854C9.30936 37.3977 11.1547 38.7385 12.5262 37.742L18.8531 33.1453C18.9407 33.0816 19.0594 33.0816 19.147 33.1453L25.4739 37.742C26.8454 38.7385 28.6907 37.3977 28.1668 35.7854L25.7502 28.3478C25.7167 28.2447 25.7534 28.1319 25.841 28.0682L32.1679 23.4715C33.5394 22.475 32.8345 20.3057 31.1392 20.3057H23.3188C23.2105 20.3057 23.1145 20.236 23.081 20.133L20.6644 12.6953ZM34.6413 9.27422C34.0775 7.75064 31.9226 7.75063 31.3588 9.27422L30.5656 11.4178C30.5403 11.4863 30.4863 11.5402 30.4179 11.5655L28.2743 12.3587C26.7507 12.9225 26.7507 15.0775 28.2743 15.6412L30.4179 16.4344C30.4863 16.4598 30.5403 16.5137 30.5656 16.5821L31.3588 18.7258C31.9226 20.2493 34.0775 20.2493 34.6413 18.7258L35.4345 16.5821C35.4598 16.5137 35.5138 16.4598 35.5822 16.4344L37.7258 15.6412C39.2494 15.0775 39.2494 12.9225 37.7258 12.3587L35.5822 11.5655C35.5138 11.5402 35.4598 11.4863 35.4345 11.4178L34.6413 9.27422ZM41.6413 21.2742C41.0775 19.7506 38.9226 19.7506 38.3588 21.2742L37.5656 23.4178C37.5403 23.4863 37.4863 23.5402 37.4179 23.5655L35.2743 24.3587C33.7507 24.9225 33.7507 27.0775 35.2743 27.6412L37.4179 28.4344C37.4863 28.4598 37.5403 28.5137 37.5656 28.5821L38.3588 30.7258C38.9226 32.2493 41.0775 32.2493 41.6413 30.7258L42.4345 28.5821C42.4598 28.5137 42.5137 28.4598 42.5822 28.4344L44.7258 27.6412C46.2494 27.0775 46.2494 24.9225 44.7258 24.3588L42.5822 23.5655C42.5137 23.5402 42.4598 23.4863 42.4345 23.4178L41.6413 21.2742Z" fill="#002746" stroke="#FCC962" stroke-width="1.5"/>
</svg>
