<svg width="50" height="50" viewBox="0 0 50 50" fill="none" xmlns="http://www.w3.org/2000/svg">
<path d="M24.0621 1.53451C24.3843 0.663887 25.6157 0.663887 25.9379 1.53451L31.8628 17.5464C31.9641 17.8201 32.1799 18.0359 32.4536 18.1372L48.4655 24.0621C49.3361 24.3843 49.3361 25.6157 48.4655 25.9379L32.4536 31.8628C32.1799 31.9641 31.9641 32.1799 31.8628 32.4536L25.9379 48.4655C25.6157 49.3361 24.3843 49.3361 24.0621 48.4655L18.1372 32.4536C18.0359 32.1799 17.8201 31.9641 17.5464 31.8628L1.53451 25.9379C0.663887 25.6157 0.663887 24.3843 1.53451 24.0621L17.5464 18.1372C17.8201 18.0359 18.0359 17.8201 18.1372 17.5464L24.0621 1.53451Z" fill="#FCC962"/>
</svg>
