<svg width="24" height="24" viewBox="0 0 24 24" fill="none" xmlns="http://www.w3.org/2000/svg">
<path d="M19.501 9.74857C19.501 11.8998 18.8025 13.887 17.6259 15.4993L23.5605 21.4375C24.1465 22.0233 24.1465 22.9748 23.5605 23.5606C22.9746 24.1465 22.0229 24.1465 21.437 23.5606L15.5023 17.6224C13.8897 18.8035 11.9021 19.4971 9.75048 19.4971C4.36428 19.4971 0 15.1337 0 9.74857C0 4.36342 4.36428 0 9.75048 0C15.1367 0 19.501 4.36342 19.501 9.74857ZM9.75048 16.4976C13.4772 16.4976 16.5008 13.4746 16.5008 9.74857C16.5008 6.02256 13.4772 2.99956 9.75048 2.99956C6.02373 2.99956 3.00015 6.02256 3.00015 9.74857C3.00015 13.4746 6.02373 16.4976 9.75048 16.4976Z" fill="#E9F5F7"/>
</svg>
