<svg width="76" height="76" viewBox="0 0 76 76" fill="none" xmlns="http://www.w3.org/2000/svg">
<circle cx="38" cy="38" r="35.5" fill="#002746" stroke="#FCC962" stroke-width="5"/>
<path d="M21.625 22.25C21.625 19.3543 23.9793 17 26.875 17H40C42.8957 17 45.25 19.3543 45.25 22.25V38H45.9062C49.893 38 53.125 41.232 53.125 45.2188V47.8438C53.125 48.9348 54.0027 49.8125 55.0938 49.8125C56.1848 49.8125 57.0625 48.9348 57.0625 47.8438V35.2109C54.7984 34.6285 53.125 32.5695 53.125 30.125V24.875L50.5 22.25C49.7781 21.5281 49.7781 20.3469 50.5 19.625C51.2219 18.9031 52.4031 18.9031 53.125 19.625L59.466 25.966C60.4504 26.9504 61 28.2875 61 29.682V30.7812V32.75V35.375V47.8438C61 51.1086 58.3586 53.75 55.0938 53.75C51.8289 53.75 49.1875 51.1086 49.1875 47.8438V45.2188C49.1875 43.4059 47.7191 41.9375 45.9062 41.9375H45.25V53.75C46.702 53.75 47.875 54.923 47.875 56.375C47.875 57.827 46.702 59 45.25 59H21.625C20.173 59 19 57.827 19 56.375C19 54.923 20.173 53.75 21.625 53.75V22.25ZM26.875 23.5625V31.4375C26.875 32.1594 27.4656 32.75 28.1875 32.75H38.6875C39.4094 32.75 40 32.1594 40 31.4375V23.5625C40 22.8406 39.4094 22.25 38.6875 22.25H28.1875C27.4656 22.25 26.875 22.8406 26.875 23.5625Z" fill="#FCC962"/>
</svg>
