<svg width="393" height="685" viewBox="0 0 393 685" fill="none" xmlns="http://www.w3.org/2000/svg">
<circle cx="196.442" cy="342.442" r="284.815" stroke="#0A7E8C" stroke-opacity="0.3" stroke-width="2" stroke-dasharray="187 89"/>
<circle cx="196.5" cy="342.5" r="300.917" transform="rotate(-8.33639 196.5 342.5)" stroke="#0A7E8C" stroke-opacity="0.3" stroke-width="2" stroke-dasharray="190 64"/>
<g filter="url(#filter0_d_216_389)">
<circle cx="237.5" cy="40.5" r="3.5" fill="#0A7E8C" fill-opacity="0.3" shape-rendering="crispEdges"/>
</g>
<g filter="url(#filter1_d_216_389)">
<circle cx="282" cy="78" r="2" fill="#0A7E8C" fill-opacity="0.3" shape-rendering="crispEdges"/>
</g>
<g filter="url(#filter2_d_216_389)">
<ellipse cx="78" cy="619.5" rx="8" ry="8.5" fill="#0A7E8C" fill-opacity="0.3" shape-rendering="crispEdges"/>
</g>
<g filter="url(#filter3_d_216_389)">
<circle cx="117.5" cy="600.5" r="2.5" fill="#0A7E8C" fill-opacity="0.3" shape-rendering="crispEdges"/>
</g>
<g filter="url(#filter4_d_216_389)">
<circle cx="377.704" cy="528.958" r="4.72856" fill="#0A7E8C" fill-opacity="0.3" shape-rendering="crispEdges"/>
</g>
<g filter="url(#filter5_d_216_389)">
<circle cx="383.5" cy="83.5" r="7.5" fill="#0A7E8C" fill-opacity="0.3" shape-rendering="crispEdges"/>
</g>
<g filter="url(#filter6_d_216_389)">
<circle cx="-1.63203" cy="598.31" r="6.83014" fill="#0A7E8C" fill-opacity="0.3" shape-rendering="crispEdges"/>
</g>
<g filter="url(#filter7_d_216_389)">
<path d="M8.04894 101.927C8.3483 101.006 9.6517 101.006 9.95106 101.927L13.4903 112.82C13.6242 113.232 14.0081 113.511 14.4413 113.511H25.8945C26.8632 113.511 27.266 114.75 26.4823 115.32L17.2165 122.052C16.866 122.306 16.7193 122.758 16.8532 123.17L20.3924 134.062C20.6918 134.984 19.6373 135.75 18.8536 135.18L9.58779 128.448C9.2373 128.194 8.7627 128.194 8.41221 128.448L-0.853591 135.18C-1.63731 135.75 -2.69179 134.984 -2.39243 134.062L1.14679 123.17C1.28066 122.758 1.13401 122.306 0.783519 122.052L-8.48229 115.32C-9.266 114.75 -8.86323 113.511 -7.8945 113.511H3.55866C3.99189 113.511 4.37584 113.232 4.50972 112.82L8.04894 101.927Z" fill="#0A7E8C" fill-opacity="0.3" shape-rendering="crispEdges"/>
</g>
<g filter="url(#filter8_d_216_389)">
<path d="M233.562 613.535C233.884 612.664 235.116 612.664 235.438 613.535L237.987 620.423C238.088 620.696 238.304 620.912 238.577 621.013L245.465 623.562C246.336 623.884 246.336 625.116 245.465 625.438L238.577 627.987C238.304 628.088 238.088 628.304 237.987 628.577L235.438 635.465C235.116 636.336 233.884 636.336 233.562 635.465L231.013 628.577C230.912 628.304 230.696 628.088 230.423 627.987L223.535 625.438C222.664 625.116 222.664 623.884 223.535 623.562L230.423 621.013C230.696 620.912 230.912 620.696 231.013 620.423L233.562 613.535Z" fill="#0A7E8C" fill-opacity="0.3" shape-rendering="crispEdges"/>
</g>
<g filter="url(#filter9_d_216_389)">
<path d="M337.562 86.5345C337.884 85.6639 339.116 85.6639 339.438 86.5345L340.366 89.0431C340.467 89.3168 340.683 89.5326 340.957 89.6339L343.465 90.5621C344.336 90.8843 344.336 92.1157 343.465 92.4379L340.957 93.3661C340.683 93.4674 340.467 93.6832 340.366 93.9569L339.438 96.4655C339.116 97.3361 337.884 97.3361 337.562 96.4655L336.634 93.9569C336.533 93.6832 336.317 93.4674 336.043 93.3661L333.535 92.4379C332.664 92.1157 332.664 90.8843 333.535 90.5621L336.043 89.6339C336.317 89.5326 336.533 89.3168 336.634 89.0431L337.562 86.5345Z" fill="#0A7E8C" fill-opacity="0.3" shape-rendering="crispEdges"/>
</g>
<g filter="url(#filter10_d_216_389)">
<path d="M161.562 51.5345C161.884 50.6639 163.116 50.6639 163.438 51.5345L164.906 55.5029C165.008 55.7766 165.223 55.9924 165.497 56.0937L169.465 57.5621C170.336 57.8843 170.336 59.1157 169.465 59.4379L165.497 60.9063C165.223 61.0076 165.008 61.2234 164.906 61.4971L163.438 65.4655C163.116 66.3361 161.884 66.3361 161.562 65.4655L160.094 61.4971C159.992 61.2234 159.777 61.0076 159.503 60.9063L155.535 59.4379C154.664 59.1157 154.664 57.8843 155.535 57.5621L159.503 56.0937C159.777 55.9924 159.992 55.7766 160.094 55.5029L161.562 51.5345Z" fill="#0A7E8C" fill-opacity="0.3" shape-rendering="crispEdges"/>
</g>
<g filter="url(#filter11_d_216_389)">
<circle cx="361" cy="618" r="3" fill="#0A7E8C" fill-opacity="0.3" shape-rendering="crispEdges"/>
</g>
<defs>
<filter id="filter0_d_216_389" x="230" y="37" width="15" height="15" filterUnits="userSpaceOnUse" color-interpolation-filters="sRGB">
<feFlood flood-opacity="0" result="BackgroundImageFix"/>
<feColorMatrix in="SourceAlpha" type="matrix" values="0 0 0 0 0 0 0 0 0 0 0 0 0 0 0 0 0 0 127 0" result="hardAlpha"/>
<feOffset dy="4"/>
<feGaussianBlur stdDeviation="2"/>
<feComposite in2="hardAlpha" operator="out"/>
<feColorMatrix type="matrix" values="0 0 0 0 0 0 0 0 0 0 0 0 0 0 0 0 0 0 0.25 0"/>
<feBlend mode="normal" in2="BackgroundImageFix" result="effect1_dropShadow_216_389"/>
<feBlend mode="normal" in="SourceGraphic" in2="effect1_dropShadow_216_389" result="shape"/>
</filter>
<filter id="filter1_d_216_389" x="276" y="76" width="12" height="12" filterUnits="userSpaceOnUse" color-interpolation-filters="sRGB">
<feFlood flood-opacity="0" result="BackgroundImageFix"/>
<feColorMatrix in="SourceAlpha" type="matrix" values="0 0 0 0 0 0 0 0 0 0 0 0 0 0 0 0 0 0 127 0" result="hardAlpha"/>
<feOffset dy="4"/>
<feGaussianBlur stdDeviation="2"/>
<feComposite in2="hardAlpha" operator="out"/>
<feColorMatrix type="matrix" values="0 0 0 0 0 0 0 0 0 0 0 0 0 0 0 0 0 0 0.25 0"/>
<feBlend mode="normal" in2="BackgroundImageFix" result="effect1_dropShadow_216_389"/>
<feBlend mode="normal" in="SourceGraphic" in2="effect1_dropShadow_216_389" result="shape"/>
</filter>
<filter id="filter2_d_216_389" x="66" y="611" width="24" height="25" filterUnits="userSpaceOnUse" color-interpolation-filters="sRGB">
<feFlood flood-opacity="0" result="BackgroundImageFix"/>
<feColorMatrix in="SourceAlpha" type="matrix" values="0 0 0 0 0 0 0 0 0 0 0 0 0 0 0 0 0 0 127 0" result="hardAlpha"/>
<feOffset dy="4"/>
<feGaussianBlur stdDeviation="2"/>
<feComposite in2="hardAlpha" operator="out"/>
<feColorMatrix type="matrix" values="0 0 0 0 0 0 0 0 0 0 0 0 0 0 0 0 0 0 0.25 0"/>
<feBlend mode="normal" in2="BackgroundImageFix" result="effect1_dropShadow_216_389"/>
<feBlend mode="normal" in="SourceGraphic" in2="effect1_dropShadow_216_389" result="shape"/>
</filter>
<filter id="filter3_d_216_389" x="111" y="598" width="13" height="13" filterUnits="userSpaceOnUse" color-interpolation-filters="sRGB">
<feFlood flood-opacity="0" result="BackgroundImageFix"/>
<feColorMatrix in="SourceAlpha" type="matrix" values="0 0 0 0 0 0 0 0 0 0 0 0 0 0 0 0 0 0 127 0" result="hardAlpha"/>
<feOffset dy="4"/>
<feGaussianBlur stdDeviation="2"/>
<feComposite in2="hardAlpha" operator="out"/>
<feColorMatrix type="matrix" values="0 0 0 0 0 0 0 0 0 0 0 0 0 0 0 0 0 0 0.25 0"/>
<feBlend mode="normal" in2="BackgroundImageFix" result="effect1_dropShadow_216_389"/>
<feBlend mode="normal" in="SourceGraphic" in2="effect1_dropShadow_216_389" result="shape"/>
</filter>
<filter id="filter4_d_216_389" x="368.975" y="524.229" width="17.4571" height="17.457" filterUnits="userSpaceOnUse" color-interpolation-filters="sRGB">
<feFlood flood-opacity="0" result="BackgroundImageFix"/>
<feColorMatrix in="SourceAlpha" type="matrix" values="0 0 0 0 0 0 0 0 0 0 0 0 0 0 0 0 0 0 127 0" result="hardAlpha"/>
<feOffset dy="4"/>
<feGaussianBlur stdDeviation="2"/>
<feComposite in2="hardAlpha" operator="out"/>
<feColorMatrix type="matrix" values="0 0 0 0 0 0 0 0 0 0 0 0 0 0 0 0 0 0 0.25 0"/>
<feBlend mode="normal" in2="BackgroundImageFix" result="effect1_dropShadow_216_389"/>
<feBlend mode="normal" in="SourceGraphic" in2="effect1_dropShadow_216_389" result="shape"/>
</filter>
<filter id="filter5_d_216_389" x="372" y="76" width="23" height="23" filterUnits="userSpaceOnUse" color-interpolation-filters="sRGB">
<feFlood flood-opacity="0" result="BackgroundImageFix"/>
<feColorMatrix in="SourceAlpha" type="matrix" values="0 0 0 0 0 0 0 0 0 0 0 0 0 0 0 0 0 0 127 0" result="hardAlpha"/>
<feOffset dy="4"/>
<feGaussianBlur stdDeviation="2"/>
<feComposite in2="hardAlpha" operator="out"/>
<feColorMatrix type="matrix" values="0 0 0 0 0 0 0 0 0 0 0 0 0 0 0 0 0 0 0.25 0"/>
<feBlend mode="normal" in2="BackgroundImageFix" result="effect1_dropShadow_216_389"/>
<feBlend mode="normal" in="SourceGraphic" in2="effect1_dropShadow_216_389" result="shape"/>
</filter>
<filter id="filter6_d_216_389" x="-12.4622" y="591.479" width="21.6603" height="21.6604" filterUnits="userSpaceOnUse" color-interpolation-filters="sRGB">
<feFlood flood-opacity="0" result="BackgroundImageFix"/>
<feColorMatrix in="SourceAlpha" type="matrix" values="0 0 0 0 0 0 0 0 0 0 0 0 0 0 0 0 0 0 127 0" result="hardAlpha"/>
<feOffset dy="4"/>
<feGaussianBlur stdDeviation="2"/>
<feComposite in2="hardAlpha" operator="out"/>
<feColorMatrix type="matrix" values="0 0 0 0 0 0 0 0 0 0 0 0 0 0 0 0 0 0 0.25 0"/>
<feBlend mode="normal" in2="BackgroundImageFix" result="effect1_dropShadow_216_389"/>
<feBlend mode="normal" in="SourceGraphic" in2="effect1_dropShadow_216_389" result="shape"/>
</filter>
<filter id="filter7_d_216_389" x="-12.8964" y="101.236" width="43.7928" height="42.1399" filterUnits="userSpaceOnUse" color-interpolation-filters="sRGB">
<feFlood flood-opacity="0" result="BackgroundImageFix"/>
<feColorMatrix in="SourceAlpha" type="matrix" values="0 0 0 0 0 0 0 0 0 0 0 0 0 0 0 0 0 0 127 0" result="hardAlpha"/>
<feOffset dy="4"/>
<feGaussianBlur stdDeviation="2"/>
<feComposite in2="hardAlpha" operator="out"/>
<feColorMatrix type="matrix" values="0 0 0 0 0 0 0 0 0 0 0 0 0 0 0 0 0 0 0.25 0"/>
<feBlend mode="normal" in2="BackgroundImageFix" result="effect1_dropShadow_216_389"/>
<feBlend mode="normal" in="SourceGraphic" in2="effect1_dropShadow_216_389" result="shape"/>
</filter>
<filter id="filter8_d_216_389" x="218.882" y="612.882" width="31.2369" height="31.2368" filterUnits="userSpaceOnUse" color-interpolation-filters="sRGB">
<feFlood flood-opacity="0" result="BackgroundImageFix"/>
<feColorMatrix in="SourceAlpha" type="matrix" values="0 0 0 0 0 0 0 0 0 0 0 0 0 0 0 0 0 0 127 0" result="hardAlpha"/>
<feOffset dy="4"/>
<feGaussianBlur stdDeviation="2"/>
<feComposite in2="hardAlpha" operator="out"/>
<feColorMatrix type="matrix" values="0 0 0 0 0 0 0 0 0 0 0 0 0 0 0 0 0 0 0.25 0"/>
<feBlend mode="normal" in2="BackgroundImageFix" result="effect1_dropShadow_216_389"/>
<feBlend mode="normal" in="SourceGraphic" in2="effect1_dropShadow_216_389" result="shape"/>
</filter>
<filter id="filter9_d_216_389" x="328.882" y="85.8816" width="19.2369" height="19.2368" filterUnits="userSpaceOnUse" color-interpolation-filters="sRGB">
<feFlood flood-opacity="0" result="BackgroundImageFix"/>
<feColorMatrix in="SourceAlpha" type="matrix" values="0 0 0 0 0 0 0 0 0 0 0 0 0 0 0 0 0 0 127 0" result="hardAlpha"/>
<feOffset dy="4"/>
<feGaussianBlur stdDeviation="2"/>
<feComposite in2="hardAlpha" operator="out"/>
<feColorMatrix type="matrix" values="0 0 0 0 0 0 0 0 0 0 0 0 0 0 0 0 0 0 0.25 0"/>
<feBlend mode="normal" in2="BackgroundImageFix" result="effect1_dropShadow_216_389"/>
<feBlend mode="normal" in="SourceGraphic" in2="effect1_dropShadow_216_389" result="shape"/>
</filter>
<filter id="filter10_d_216_389" x="150.882" y="50.8816" width="23.2369" height="23.2368" filterUnits="userSpaceOnUse" color-interpolation-filters="sRGB">
<feFlood flood-opacity="0" result="BackgroundImageFix"/>
<feColorMatrix in="SourceAlpha" type="matrix" values="0 0 0 0 0 0 0 0 0 0 0 0 0 0 0 0 0 0 127 0" result="hardAlpha"/>
<feOffset dy="4"/>
<feGaussianBlur stdDeviation="2"/>
<feComposite in2="hardAlpha" operator="out"/>
<feColorMatrix type="matrix" values="0 0 0 0 0 0 0 0 0 0 0 0 0 0 0 0 0 0 0.25 0"/>
<feBlend mode="normal" in2="BackgroundImageFix" result="effect1_dropShadow_216_389"/>
<feBlend mode="normal" in="SourceGraphic" in2="effect1_dropShadow_216_389" result="shape"/>
</filter>
<filter id="filter11_d_216_389" x="354" y="615" width="14" height="14" filterUnits="userSpaceOnUse" color-interpolation-filters="sRGB">
<feFlood flood-opacity="0" result="BackgroundImageFix"/>
<feColorMatrix in="SourceAlpha" type="matrix" values="0 0 0 0 0 0 0 0 0 0 0 0 0 0 0 0 0 0 127 0" result="hardAlpha"/>
<feOffset dy="4"/>
<feGaussianBlur stdDeviation="2"/>
<feComposite in2="hardAlpha" operator="out"/>
<feColorMatrix type="matrix" values="0 0 0 0 0 0 0 0 0 0 0 0 0 0 0 0 0 0 0.25 0"/>
<feBlend mode="normal" in2="BackgroundImageFix" result="effect1_dropShadow_216_389"/>
<feBlend mode="normal" in="SourceGraphic" in2="effect1_dropShadow_216_389" result="shape"/>
</filter>
</defs>
</svg>
