<svg width="76" height="76" viewBox="0 0 76 76" fill="none" xmlns="http://www.w3.org/2000/svg">
<circle cx="38" cy="38" r="35.5" fill="#002746" stroke="#FCC962" stroke-width="5"/>
<path d="M28.0714 19C24.1674 19 21 22.1914 21 26.125V45.125C21 48.6875 23.5929 51.634 26.9739 52.1684L23.5855 55.5824C23.0699 56.102 23.4382 57 24.1674 57H27.0917C27.7179 57 28.3145 56.7477 28.7565 56.3023L32.7857 52.25H42.2143L46.2362 56.3023C46.6781 56.7477 47.2748 57 47.9009 57H50.8326C51.5692 57 51.9375 56.102 51.4145 55.5824L48.0261 52.1684C51.4145 51.6414 54 48.6875 54 45.125V26.125C54 22.1914 50.8326 19 46.9286 19H28.0714ZM25.7143 28.5C25.7143 27.1863 26.7676 26.125 28.0714 26.125H33.9643C35.2681 26.125 36.3214 27.1863 36.3214 28.5V35.625C36.3214 36.9387 35.2681 38 33.9643 38H28.0714C26.7676 38 25.7143 36.9387 25.7143 35.625V28.5ZM41.0357 26.125H46.9286C48.2324 26.125 49.2857 27.1863 49.2857 28.5V35.625C49.2857 36.9387 48.2324 38 46.9286 38H41.0357C39.7319 38 38.6786 36.9387 38.6786 35.625V28.5C38.6786 27.1863 39.7319 26.125 41.0357 26.125ZM30.4286 45.125C30.4286 46.4387 29.3752 47.5 28.0714 47.5C26.7676 47.5 25.7143 46.4387 25.7143 45.125C25.7143 43.8113 26.7676 42.75 28.0714 42.75C29.3752 42.75 30.4286 43.8113 30.4286 45.125ZM46.9286 47.5C45.6248 47.5 44.5714 46.4387 44.5714 45.125C44.5714 43.8113 45.6248 42.75 46.9286 42.75C48.2324 42.75 49.2857 43.8113 49.2857 45.125C49.2857 46.4387 48.2324 47.5 46.9286 47.5Z" fill="#FCC962"/>
</svg>
