<svg width="76" height="76" viewBox="0 0 76 76" fill="none" xmlns="http://www.w3.org/2000/svg">
<circle cx="38" cy="38" r="35.5" fill="#002746" stroke="#FCC962" stroke-width="5"/>
<path d="M36.8791 18.2953C37.5681 17.9016 38.4187 17.9016 39.1147 18.2953L51.193 25.193L51.4953 25.3125V25.3758L54.8629 27.3023C55.7487 27.8086 56.1846 28.8492 55.9245 29.8336C55.6644 30.818 54.7715 31.507 53.7521 31.507H22.2488C21.2293 31.507 20.3365 30.818 20.0764 29.8336C19.8162 28.8492 20.2521 27.8086 21.1379 27.3023L24.4985 25.3758V25.3125L24.8078 25.2L36.8791 18.2953ZM24.4985 33.75H28.998V47.25H31.8101V33.75H36.3096V47.25H39.6842V33.75H44.1837V47.25H46.9958V33.75H51.4953V47.5523C51.5375 47.5734 51.5797 47.6016 51.6219 47.6297L54.9965 49.8797C55.819 50.4281 56.1916 51.4547 55.9034 52.4039C55.6152 53.3531 54.7363 54 53.7451 54H22.2488C21.2575 54 20.3857 53.3531 20.0974 52.4039C19.8092 51.4547 20.1748 50.4281 21.0044 49.8797L24.379 47.6297C24.4212 47.6016 24.4633 47.5805 24.5055 47.5523V33.75H24.4985Z" fill="#FCC962"/>
</svg>
