<svg width="50" height="50" viewBox="0 0 50 50" fill="none" xmlns="http://www.w3.org/2000/svg">
<path d="M23.3617 28.217C23.5139 27.6861 24.0677 27.3792 24.5985 27.5314L25.1497 27.6894C25.6806 27.8417 25.9875 28.3954 25.8353 28.9263L22.7922 39.5387C22.64 40.0696 22.0862 40.3766 21.5553 40.2243L21.0042 40.0663C20.4733 39.9141 20.1664 39.3603 20.3186 38.8294L23.3617 28.217Z" fill="#3B97A0"/>
<path d="M25.5316 28.9266C25.3794 28.3957 25.6864 27.8419 26.2173 27.6897L26.7684 27.5317C27.2993 27.3794 27.8531 27.6864 28.0053 28.2173L31.0483 38.8297C31.2006 39.3606 30.8936 39.9144 30.3627 40.0666L29.8116 40.2246C29.2807 40.3768 28.7269 40.0699 28.5747 39.539L25.5316 28.9266Z" fill="#3B97A0"/>
<path d="M10.3442 20.6374C10.1896 20.139 10.4441 19.6056 10.9287 19.4123L32.1493 10.9463C32.6911 10.7302 33.3021 11.0217 33.4749 11.5789L36.6975 21.9664C36.8703 22.5235 36.5316 23.1097 35.9626 23.2382L13.6765 28.2694C13.1675 28.3842 12.6558 28.0885 12.5012 27.5902L10.3442 20.6374Z" fill="#3B97A0"/>
<path d="M34.6961 11.1143C34.5324 10.5868 34.8274 10.0265 35.3549 9.86286L37.181 9.29633C37.7085 9.13269 38.2688 9.42764 38.4324 9.95513L41.7036 20.4994C41.8672 21.0269 41.5723 21.5872 41.0448 21.7508L39.2186 22.3174C38.6912 22.481 38.1309 22.186 37.9672 21.6586L34.6961 11.1143Z" fill="#3B97A0"/>
<path d="M8.45533 23.3508C8.29169 22.8233 8.58664 22.263 9.11412 22.0994L15.9221 19.9874C16.4496 19.8237 17.0098 20.1187 17.1735 20.6462L18.1264 23.7178C18.29 24.2453 17.9951 24.8055 17.4676 24.9692L10.6596 27.0812C10.1321 27.2448 9.57188 26.9499 9.40823 26.4224L8.45533 23.3508Z" fill="#3B97A0"/>
<path d="M28.9999 26.5C28.9999 28.433 27.4329 30 25.4999 30C23.5669 30 21.9999 28.433 21.9999 26.5C21.9999 24.567 23.5669 23 25.4999 23C27.4329 23 28.9999 24.567 28.9999 26.5Z" fill="#3B97A0"/>
</svg>
