<svg width="76" height="76" viewBox="0 0 76 76" fill="none" xmlns="http://www.w3.org/2000/svg">
<circle cx="38" cy="38" r="35.5" fill="#002746" stroke="#FCC962" stroke-width="5"/>
<path d="M45.1875 24.6875C45.1875 28.9316 41.7441 32.375 37.5 32.375C33.2559 32.375 29.8125 28.9316 29.8125 24.6875C29.8125 20.4434 33.2559 17 37.5 17C41.7441 17 45.1875 20.4434 45.1875 24.6875ZM36.2188 36.8594V58L32.343 56.0621C30.6693 55.2293 28.8596 54.7008 26.9938 54.5166L19.3062 53.7479C18.001 53.6117 17 52.5146 17 51.1934V34.9375C17 33.5201 18.1451 32.375 19.5625 32.375H21.9889C27.0818 32.375 32.0467 33.9445 36.2188 36.8594ZM38.7812 58V36.8594C42.9533 33.9445 47.9182 32.375 53.0111 32.375H55.4375C56.8549 32.375 58 33.5201 58 34.9375V51.1934C58 52.5066 56.999 53.6117 55.6938 53.7398L48.0063 54.5086C46.1484 54.6928 44.3307 55.2213 42.657 56.0541L38.7812 58Z" fill="#FCC962"/>
</svg>
