<svg width="76" height="76" viewBox="0 0 76 76" fill="none" xmlns="http://www.w3.org/2000/svg">
<circle cx="38" cy="38" r="35.5" fill="#FFFAF0" stroke="#3B97A0" stroke-width="5"/>
<path d="M58.0146 26.1094L53.4862 19.0234C53.0832 18.3906 52.364 18 51.5974 18H23.3995C22.6329 18 21.9137 18.3906 21.5107 19.0234L16.9744 26.1094C14.6351 29.7656 16.7057 34.8516 21.076 35.4375C21.3921 35.4766 21.7162 35.5 22.0323 35.5C24.095 35.5 25.9285 34.6094 27.185 33.2344C28.4416 34.6094 30.2751 35.5 32.3378 35.5C34.4005 35.5 36.234 34.6094 37.4906 33.2344C38.7471 34.6094 40.5806 35.5 42.6433 35.5C44.7139 35.5 46.5395 34.6094 47.7961 33.2344C49.0605 34.6094 50.8861 35.5 52.9488 35.5C53.2728 35.5 53.589 35.4766 53.9051 35.4375C58.2912 34.8594 60.3697 29.7734 58.0225 26.1094H58.0146ZM54.2291 37.9141H54.2212C53.8023 37.9687 53.3756 38 52.9409 38C51.9609 38 51.0205 37.8516 50.1433 37.5859V48H24.8537V37.5781C23.9685 37.8516 23.0202 38 22.0402 38C21.6055 38 21.1709 37.9687 20.752 37.9141H20.7441C20.4201 37.8672 20.104 37.8125 19.7957 37.7344V48V53C19.7957 55.7578 22.0639 58 24.8537 58H50.1433C52.933 58 55.2012 55.7578 55.2012 53V48V37.7344C54.8851 37.8125 54.5689 37.875 54.2291 37.9141Z" fill="#3B97A0"/>
</svg>
