<svg width="76" height="76" viewBox="0 0 76 76" fill="none" xmlns="http://www.w3.org/2000/svg">
<circle cx="38" cy="38" r="35.5" fill="#FFFAF0" stroke="#3B97A0" stroke-width="5"/>
<path d="M36.983 18.4494L25.7054 30.9035C25.4094 31.2234 25.25 31.65 25.25 32.0842C25.25 33.0592 26.0317 33.8438 27.0031 33.8438H28.8929L23.3223 39.4348C23.0036 39.7547 22.8214 40.1965 22.8214 40.6535C22.8214 41.6057 23.5879 42.375 24.5366 42.375H27.0714L21.4098 49.1924C21.1442 49.5123 21 49.916 21 50.335C21 51.3252 21.7969 52.125 22.7835 52.125H35.5714V54.5625C35.5714 55.9107 36.6567 57 38 57C39.3433 57 40.4286 55.9107 40.4286 54.5625V52.125H53.2165C54.2031 52.125 55 51.3252 55 50.335C55 49.916 54.8558 49.5123 54.5902 49.1924L48.9286 42.375H51.4634C52.4121 42.375 53.1786 41.6057 53.1786 40.6535C53.1786 40.1965 52.9964 39.7547 52.6777 39.4348L47.1071 33.8438H48.9969C49.9607 33.8438 50.75 33.0592 50.75 32.0842C50.75 31.65 50.5906 31.2234 50.2946 30.9035L39.017 18.4494C38.7589 18.16 38.3871 18 38 18C37.6129 18 37.2411 18.16 36.983 18.4494Z" fill="#3B97A0"/>
</svg>
