<svg width="76" height="76" viewBox="0 0 76 76" fill="none" xmlns="http://www.w3.org/2000/svg">
<circle cx="38" cy="38" r="35.5" fill="#FFFAF0" stroke="#3B97A0" stroke-width="5"/>
<path d="M46.7633 17.4804C46.0346 18.3612 44.6252 20.3871 44.6252 22.7653C44.6252 25.9682 45.8504 27.1933 47.8283 29.1711C49.8062 31.1489 51.0314 32.3741 54.2345 32.3741C56.6127 32.3741 58.6387 30.9648 59.5195 30.2361C59.8398 29.9719 60 29.5795 60 29.1711C60 28.7628 59.8398 28.3704 59.5195 28.1142C58.6067 27.3855 56.4526 25.9682 53.5938 25.9682C51.0314 25.9682 50.3908 26.6088 50.3908 26.6088C50.3908 26.6088 51.0314 25.9682 51.0314 23.4059C51.0314 20.5472 49.614 18.3933 48.8853 17.4804C48.6291 17.1601 48.2367 17 47.8283 17C47.4199 17 47.0275 17.1601 46.7633 17.4804ZM38.5874 27.89C35.3843 27.89 32.4135 29.3393 30.4436 31.7495L35.2882 36.5939C35.7847 37.0904 35.7847 37.9071 35.2882 38.4036C34.7918 38.9 33.975 38.9 33.4785 38.4036L29.0502 33.9755V33.9835L19.1767 55.267C18.8404 55.9957 18.9926 56.8604 19.5611 57.437C20.1297 58.0135 20.9945 58.1576 21.7312 57.8213L32.5176 52.8248L28.3456 48.6529C27.8491 48.1565 27.8491 47.3397 28.3456 46.8433C28.842 46.3468 29.6588 46.3468 30.1553 46.8433L34.9919 51.6717L43.0157 47.9563C46.7312 46.2347 49.1175 42.5113 49.1175 38.4116C49.1095 32.5983 44.401 27.89 38.5874 27.89Z" fill="#3B97A0"/>
</svg>
