<svg width="76" height="76" viewBox="0 0 76 76" fill="none" xmlns="http://www.w3.org/2000/svg">
<circle cx="38" cy="38" r="35.5" fill="#FFFAF0" stroke="#3B97A0" stroke-width="5"/>
<path d="M23 21.375C23 20.0613 24.0799 19 25.4167 19H49.5833C50.9201 19 52 20.0613 52 21.375V23.75C52 25.0637 50.9201 26.125 49.5833 26.125H25.4167C24.0799 26.125 23 25.0637 23 23.75V21.375ZM25.4167 28.5H49.5833V52.25C49.5833 54.8699 47.4159 57 44.75 57H30.25C27.5841 57 25.4167 54.8699 25.4167 52.25V28.5ZM35.0833 36.8125V40.375H31.4583C30.7938 40.375 30.25 40.9094 30.25 41.5625V43.9375C30.25 44.5906 30.7938 45.125 31.4583 45.125H35.0833V48.6875C35.0833 49.3406 35.6271 49.875 36.2917 49.875H38.7083C39.3729 49.875 39.9167 49.3406 39.9167 48.6875V45.125H43.5417C44.2063 45.125 44.75 44.5906 44.75 43.9375V41.5625C44.75 40.9094 44.2063 40.375 43.5417 40.375H39.9167V36.8125C39.9167 36.1594 39.3729 35.625 38.7083 35.625H36.2917C35.6271 35.625 35.0833 36.1594 35.0833 36.8125Z" fill="#3B97A0"/>
</svg>
