<svg width="76" height="76" viewBox="0 0 76 76" fill="none" xmlns="http://www.w3.org/2000/svg">
<circle cx="38" cy="38" r="35.5" fill="#FFFAF0" stroke="#3B97A0" stroke-width="5"/>
<path d="M16.35 21C17.6498 21 18.7 22.0533 18.7 23.3571V42.2143H35.15V30.4286C35.15 29.1248 36.2002 28.0714 37.5 28.0714H53.95C57.8422 28.0714 61 31.2388 61 35.1429V51.6429C61 52.9467 59.9498 54 58.65 54C57.3502 54 56.3 52.9467 56.3 51.6429V49.2857H39.85H37.5H18.7V51.6429C18.7 52.9467 17.6498 54 16.35 54C15.0502 54 14 52.9467 14 51.6429V23.3571C14 22.0533 15.0502 21 16.35 21ZM26.925 39.8571C23.6791 39.8571 21.05 37.2201 21.05 33.9643C21.05 30.7085 23.6791 28.0714 26.925 28.0714C30.1709 28.0714 32.8 30.7085 32.8 33.9643C32.8 37.2201 30.1709 39.8571 26.925 39.8571Z" fill="#3B97A0"/>
</svg>
