<svg width="93" height="93" viewBox="0 0 93 93" fill="none" xmlns="http://www.w3.org/2000/svg">
<path d="M46.7105 33.1064L40.8059 36.3462L39.3106 33.5564C39.7469 32.9301 39.8202 32.0858 39.4278 31.3707C38.8766 30.366 37.6152 29.9984 36.6105 30.5497C35.6058 31.1009 35.2382 32.3623 35.7895 33.367C36.151 34.0259 36.8175 34.4101 37.516 34.4419L39.0524 37.3083L32.5079 40.8991C31.7963 41.2896 31.481 42.2279 31.9906 42.9543C33.2378 44.7323 35.0587 46.0443 37.1638 46.6577C38.4119 47.0215 39.7078 47.1244 40.9743 46.975L45.7849 55.7427C46.1834 56.469 47.0953 56.7347 47.8216 56.3362L51.3284 54.4121C52.0547 54.0136 52.3204 53.1017 51.9219 52.3755L47.149 43.6766C48.024 42.6523 48.6821 41.4454 49.0663 40.1271C49.6798 38.022 49.5514 35.7813 48.7218 33.7742L48.2597 33.9652L48.7218 33.7742C48.3828 32.9542 47.4221 32.716 46.7105 33.1064ZM40.5864 49.698C40.1879 48.9718 39.2761 48.706 38.5498 49.1045L27.7225 55.0453C26.9962 55.4438 26.7305 56.3556 27.129 57.0819L30.2076 62.6928C30.6061 63.419 31.5179 63.6848 32.2442 63.2863L43.0715 57.3455C43.7978 56.947 44.0635 56.0352 43.665 55.3089L40.5864 49.698ZM63.9069 36.9026C63.5084 36.1763 62.5966 35.9106 61.8703 36.3091L51.043 42.2498C50.3168 42.6483 50.051 43.5601 50.4495 44.2864L53.5281 49.8973C53.9266 50.6236 54.8384 50.8893 55.5647 50.4908L66.392 44.5501C67.1183 44.1516 67.384 43.2398 66.9855 42.5135L63.9069 36.9026Z" fill="#FFFAF0" stroke="#3B97A0"/>
</svg>
