<svg width="93" height="93" viewBox="0 0 93 93" fill="none" xmlns="http://www.w3.org/2000/svg">
<path d="M46.7105 33.1067L40.8059 36.3465L39.3106 33.5567C39.7469 32.9305 39.8202 32.0862 39.4278 31.371C38.8766 30.3663 37.6152 29.9987 36.6105 30.55C35.6058 31.1012 35.2382 32.3626 35.7895 33.3673C36.151 34.0262 36.8175 34.4104 37.516 34.4422L39.0524 37.3086L32.5079 40.8994C31.7963 41.2899 31.481 42.2282 31.9906 42.9546C33.2378 44.7326 35.0587 46.0446 37.1638 46.6581C38.4119 47.0218 39.7078 47.1247 40.9743 46.9753L45.7849 55.743C46.1834 56.4693 47.0953 56.735 47.8216 56.3365L51.3284 54.4124C52.0547 54.0139 52.3204 53.1021 51.9219 52.3758L47.149 43.6769C48.024 42.6526 48.6821 41.4457 49.0663 40.1274C49.6798 38.0223 49.5514 35.7816 48.7218 33.7745L48.2597 33.9655L48.7218 33.7745C48.3828 32.9545 47.4221 32.7163 46.7105 33.1067ZM40.5864 49.6983C40.1879 48.9721 39.2761 48.7063 38.5498 49.1048L27.7225 55.0456C26.9962 55.4441 26.7305 56.3559 27.129 57.0822L30.2076 62.6931C30.6061 63.4194 31.5179 63.6851 32.2442 63.2866L43.0715 57.3459C43.7978 56.9474 44.0635 56.0355 43.665 55.3092L40.5864 49.6983ZM63.9069 36.9029C63.5084 36.1766 62.5966 35.9109 61.8703 36.3094L51.043 42.2501C50.3168 42.6486 50.051 43.5604 50.4495 44.2867L53.5281 49.8976C53.9266 50.6239 54.8384 50.8896 55.5647 50.4911L66.392 44.5504C67.1183 44.1519 67.384 43.2401 66.9855 42.5138L63.9069 36.9029Z" fill="#002746" stroke="#FCC962"/>
</svg>
