<svg width="76" height="76" viewBox="0 0 76 76" fill="none" xmlns="http://www.w3.org/2000/svg">
<circle cx="38" cy="38" r="35.5" fill="#002746" stroke="#FCC962" stroke-width="5"/>
<path d="M43 25.5H33L29.2969 19.9453C28.7422 19.1094 29.3359 18 30.3359 18H45.6641C46.6641 18 47.2578 19.1094 46.7031 19.9453L43 25.5ZM33 28H43C43.2969 28.1953 43.6328 28.4141 44.0156 28.6562C48.4453 31.4922 58 37.6016 58 50.5C58 54.6406 54.6406 58 50.5 58H25.5C21.3594 58 18 54.6406 18 50.5C18 37.6016 27.5547 31.4922 31.9844 28.6562C32.3594 28.4141 32.7031 28.1953 33 28ZM39.5703 35.5C39.5703 34.6328 38.8672 33.9297 38 33.9297C37.1328 33.9297 36.4297 34.6328 36.4297 35.5V35.9688C35.9922 36.0625 35.5781 36.1953 35.1875 36.3672C34.0156 36.8984 33.0078 37.8828 32.7578 39.3125C32.6172 40.1094 32.6953 40.875 33.0234 41.5781C33.3516 42.2656 33.8594 42.75 34.375 43.1016C35.2813 43.7187 36.4766 44.0781 37.3906 44.3516L37.5625 44.4062C38.6484 44.7344 39.3906 44.9844 39.8516 45.3203C40.0469 45.4609 40.1172 45.5703 40.1484 45.6406C40.1719 45.7031 40.2188 45.8438 40.1641 46.1641C40.1172 46.4375 39.9688 46.6641 39.5391 46.8516C39.0625 47.0547 38.2891 47.1563 37.2891 47C36.8203 46.9219 35.9844 46.6406 35.2422 46.3828C35.0703 46.3203 34.9062 46.2656 34.75 46.2188C33.9297 45.9453 33.0469 46.3906 32.7734 47.2109C32.5 48.0312 32.9453 48.9141 33.7656 49.1875C33.8594 49.2188 33.9766 49.2578 34.1094 49.3047C34.7266 49.5156 35.6953 49.8437 36.4375 50.0156V50.5C36.4375 51.3672 37.1406 52.0703 38.0078 52.0703C38.875 52.0703 39.5781 51.3672 39.5781 50.5V50.0703C40 49.9922 40.3984 49.875 40.7813 49.7109C42.0078 49.1875 43 48.1719 43.25 46.6875C43.3906 45.875 43.3281 45.1016 43.0156 44.3906C42.7109 43.6875 42.2187 43.1719 41.6953 42.7891C40.7422 42.1016 39.4844 41.7187 38.5391 41.4297L38.4766 41.4141C37.3672 41.0781 36.6172 40.8437 36.1406 40.5234C35.9375 40.3828 35.875 40.2891 35.8594 40.25C35.8438 40.2266 35.8047 40.125 35.8516 39.8594C35.875 39.7109 36 39.4531 36.4922 39.2266C36.9922 39 37.7734 38.875 38.7266 39.0234C39.0625 39.0781 40.125 39.2812 40.4219 39.3594C41.2578 39.5781 42.1094 39.0859 42.3359 38.25C42.5625 37.4141 42.0625 36.5625 41.2266 36.3359C40.8828 36.2422 40.1016 36.0859 39.5859 35.9922V35.5H39.5703Z" fill="#FCC962"/>
</svg>
