<svg width="76" height="76" viewBox="0 0 76 76" fill="none" xmlns="http://www.w3.org/2000/svg">
<circle cx="38" cy="38" r="35.5" fill="#FFFAF0" stroke="#3B97A0" stroke-width="5"/>
<path d="M17 25.1429C17 22.3063 19.2982 20 22.125 20H52.875C55.7018 20 58 22.3063 58 25.1429V50.8571C58 53.6937 55.7018 56 52.875 56H22.125C19.2982 56 17 53.6937 17 50.8571V25.1429ZM20.8438 47V49.5714C20.8438 50.2786 21.4203 50.8571 22.125 50.8571H24.6875C25.3922 50.8571 25.9688 50.2786 25.9688 49.5714V47C25.9688 46.2929 25.3922 45.7143 24.6875 45.7143H22.125C21.4203 45.7143 20.8438 46.2929 20.8438 47ZM50.3125 45.7143C49.6078 45.7143 49.0312 46.2929 49.0312 47V49.5714C49.0312 50.2786 49.6078 50.8571 50.3125 50.8571H52.875C53.5797 50.8571 54.1562 50.2786 54.1562 49.5714V47C54.1562 46.2929 53.5797 45.7143 52.875 45.7143H50.3125ZM20.8438 36.7143V39.2857C20.8438 39.9929 21.4203 40.5714 22.125 40.5714H24.6875C25.3922 40.5714 25.9688 39.9929 25.9688 39.2857V36.7143C25.9688 36.0071 25.3922 35.4286 24.6875 35.4286H22.125C21.4203 35.4286 20.8438 36.0071 20.8438 36.7143ZM50.3125 35.4286C49.6078 35.4286 49.0312 36.0071 49.0312 36.7143V39.2857C49.0312 39.9929 49.6078 40.5714 50.3125 40.5714H52.875C53.5797 40.5714 54.1562 39.9929 54.1562 39.2857V36.7143C54.1562 36.0071 53.5797 35.4286 52.875 35.4286H50.3125ZM20.8438 26.4286V29C20.8438 29.7071 21.4203 30.2857 22.125 30.2857H24.6875C25.3922 30.2857 25.9688 29.7071 25.9688 29V26.4286C25.9688 25.7214 25.3922 25.1429 24.6875 25.1429H22.125C21.4203 25.1429 20.8438 25.7214 20.8438 26.4286ZM50.3125 25.1429C49.6078 25.1429 49.0312 25.7214 49.0312 26.4286V29C49.0312 29.7071 49.6078 30.2857 50.3125 30.2857H52.875C53.5797 30.2857 54.1562 29.7071 54.1562 29V26.4286C54.1562 25.7214 53.5797 25.1429 52.875 25.1429H50.3125ZM29.8125 27.7143V32.8571C29.8125 34.2795 30.9576 35.4286 32.375 35.4286H42.625C44.0424 35.4286 45.1875 34.2795 45.1875 32.8571V27.7143C45.1875 26.292 44.0424 25.1429 42.625 25.1429H32.375C30.9576 25.1429 29.8125 26.292 29.8125 27.7143ZM32.375 40.5714C30.9576 40.5714 29.8125 41.7205 29.8125 43.1429V48.2857C29.8125 49.708 30.9576 50.8571 32.375 50.8571H42.625C44.0424 50.8571 45.1875 49.708 45.1875 48.2857V43.1429C45.1875 41.7205 44.0424 40.5714 42.625 40.5714H32.375Z" fill="#3B97A0"/>
</svg>
