<svg width="76" height="76" viewBox="0 0 76 76" fill="none" xmlns="http://www.w3.org/2000/svg">
<circle cx="38" cy="38" r="35.5" fill="#002746" stroke="#FCC962" stroke-width="5"/>
<path d="M33.6674 21.3603C34.1897 20.8755 35 20.8822 35.5223 21.3669C37.3705 23.0867 39.1049 24.9394 40.7254 26.9447C41.4621 25.9885 42.2991 24.946 43.2031 24.0961C43.7321 23.6047 44.5491 23.6047 45.0781 24.1027C47.3951 26.294 49.3571 29.1892 50.7366 31.9382C52.096 34.6475 53 37.4165 53 39.3687C53 47.8418 46.317 55 38 55C29.5893 55 23 47.8351 23 39.3621C23 36.8122 24.192 33.6979 26.0402 30.6168C27.9085 27.4892 30.5469 24.2289 33.6674 21.3603ZM38.1138 48.6253C39.808 48.6253 41.308 48.1605 42.721 47.2309C45.5402 45.2786 46.2969 41.3741 44.6027 38.3063C44.4152 37.9344 44.2277 37.5626 43.9464 37.1907L40.558 41.0952C40.558 41.0952 35.1071 34.2159 34.7254 33.751C31.9129 37.1907 30.5 39.143 30.5 41.3741C30.5 45.9294 33.8884 48.6253 38.1138 48.6253Z" fill="#FCC962"/>
</svg>
