<svg width="76" height="76" viewBox="0 0 76 76" fill="none" xmlns="http://www.w3.org/2000/svg">
<circle cx="38" cy="38" r="35.5" fill="#002746" stroke="#FCC962" stroke-width="5"/>
<path d="M26.4743 21.6562C26.4743 23.6748 24.8281 25.3125 22.799 25.3125C20.77 25.3125 19.1238 23.6748 19.1238 21.6562C19.1238 19.6377 20.77 18 22.799 18C24.8281 18 26.4743 19.6377 26.4743 21.6562ZM22.1865 44.8125V54.5625C22.1865 55.9107 21.0915 57 19.7363 57C18.3811 57 17.2861 55.9107 17.2861 54.5625V42.7711C16.6659 43.4719 15.6706 43.7766 14.7211 43.4871C13.4271 43.0834 12.7074 41.7199 13.1132 40.4326L15.4791 32.884C16.4362 29.8295 19.2769 27.75 22.4927 27.75H23.1053C26.3211 27.75 29.1618 29.8295 30.1189 32.884L32.4848 40.4326C32.8906 41.7199 32.1709 43.0834 30.8769 43.4871C29.9275 43.7842 28.9321 43.4719 28.3119 42.7711V54.5625C28.3119 55.9107 27.217 57 25.8617 57C24.5065 57 23.4115 55.9107 23.4115 54.5625V44.8125H22.1865ZM37.5 18C38.5184 18 39.3376 18.815 39.3376 19.8281V55.1719C39.3376 56.185 38.5184 57 37.5 57C36.4817 57 35.6624 56.185 35.6624 55.1719V19.8281C35.6624 18.815 36.4817 18 37.5 18ZM55.8762 21.6562C55.8762 23.6748 54.23 25.3125 52.201 25.3125C50.1719 25.3125 48.5257 23.6748 48.5257 21.6562C48.5257 19.6377 50.1719 18 52.201 18C54.23 18 55.8762 19.6377 55.8762 21.6562ZM46.6881 54.5625V47.25H45.3252C44.4906 47.25 43.9011 46.435 44.1614 45.6428L44.8505 43.5938C44.6055 43.5938 44.3605 43.5557 44.1231 43.4795C42.8291 43.0758 42.1094 41.7123 42.5152 40.425L44.7892 33.1734C45.7999 29.9514 48.8014 27.75 52.201 27.75C55.6006 27.75 58.602 29.9514 59.6127 33.1734L61.8868 40.425C62.2926 41.7123 61.5729 43.0758 60.2789 43.4795C60.0339 43.5557 59.7888 43.5938 59.5515 43.5938L60.2406 45.6428C60.5086 46.435 59.9114 47.25 59.0768 47.25H57.7139V54.5625C57.7139 55.9107 56.6189 57 55.2637 57C53.9084 57 52.8135 55.9107 52.8135 54.5625V47.25H51.5885V54.5625C51.5885 55.9107 50.4935 57 49.1383 57C47.783 57 46.6881 55.9107 46.6881 54.5625Z" fill="#FCC962"/>
</svg>
