<svg width="76" height="76" viewBox="0 0 76 76" fill="none" xmlns="http://www.w3.org/2000/svg">
<circle cx="38" cy="38" r="35.5" fill="#FFFAF0" stroke="#3B97A0" stroke-width="5"/>
<path d="M20.9375 22C18.7637 22 17 23.7917 17 26C17 27.2583 17.5824 28.4417 18.575 29.2L36.425 42.8C37.3602 43.5083 38.6398 43.5083 39.575 42.8L57.425 29.2C58.4176 28.4417 59 27.2583 59 26C59 23.7917 57.2363 22 55.0625 22H20.9375ZM17 31.3333V48.6667C17 51.6083 19.3543 54 22.25 54H53.75C56.6457 54 59 51.6083 59 48.6667V31.3333L41.15 44.9333C39.2797 46.3583 36.7203 46.3583 34.85 44.9333L17 31.3333Z" fill="#3B97A0"/>
</svg>
