<svg width="76" height="76" viewBox="0 0 76 76" fill="none" xmlns="http://www.w3.org/2000/svg">
<circle cx="38" cy="38" r="35.5" fill="#002746" stroke="#FCC962" stroke-width="5"/>
<path d="M53.3571 17C52.0357 17 42.7857 19.625 42.7857 31.4375V40.625C42.7857 43.5207 45.156 45.875 48.0714 45.875H50.7143V56.375C50.7143 57.827 51.8953 59 53.3571 59C54.819 59 56 57.827 56 56.375V45.875V36.6875V19.625C56 18.173 54.819 17 53.3571 17ZM24.2857 18.3125C24.2857 17.6398 23.7819 17.082 23.1047 17.0082C22.4275 16.9344 21.8246 17.3773 21.6759 18.0254L19.1734 29.2063C19.0578 29.723 19 30.248 19 30.773C19 34.5383 21.8989 37.6309 25.6071 37.9672V56.375C25.6071 57.827 26.7882 59 28.25 59C29.7118 59 30.8929 57.827 30.8929 56.375V37.9672C34.6011 37.6309 37.5 34.5383 37.5 30.773C37.5 30.248 37.4422 29.723 37.3266 29.2063L34.8241 18.0254C34.6754 17.3691 34.056 16.9344 33.3871 17.0082C32.7181 17.082 32.2143 17.6398 32.2143 18.3125V29.3211C32.2143 29.7641 31.8509 30.125 31.4049 30.125C30.9837 30.125 30.6368 29.8051 30.5955 29.3867L29.5632 18.1977C29.5054 17.5168 28.9355 17 28.25 17C27.5645 17 26.9946 17.5168 26.9368 18.1977L25.9127 29.3867C25.8714 29.8051 25.5246 30.125 25.1033 30.125C24.6574 30.125 24.294 29.7641 24.294 29.3211V18.3125H24.2857ZM28.2748 30.7812H28.25H28.2252L28.25 30.7238L28.2748 30.7812Z" fill="#FCC962"/>
</svg>
