<svg width="76" height="76" viewBox="0 0 76 76" fill="none" xmlns="http://www.w3.org/2000/svg">
<circle cx="38" cy="38" r="35.5" fill="#FFFAF0" stroke="#3B97A0" stroke-width="5"/>
<path d="M45.1538 20.9371C45.1538 18.7635 43.3966 17 41.2308 17C39.0649 17 37.3077 18.7635 37.3077 20.9371C37.3077 23.1107 39.0649 24.8742 41.2308 24.8742C43.3966 24.8742 45.1538 23.1107 45.1538 20.9371ZM29.2736 31.395C30.0827 30.5829 31.1861 30.1236 32.3385 30.1236C32.4937 30.1236 32.649 30.1318 32.7962 30.1482L30.2462 37.8337C29.4861 40.1304 30.3851 42.6567 32.4365 43.9444L39.4817 48.3654L37.4058 55.649C37.0053 57.0434 37.8144 58.4952 39.2038 58.8971C40.5933 59.299 42.0399 58.487 42.4404 57.0926L44.7861 48.8576C45.2683 47.1679 44.5736 45.3634 43.0942 44.4366L38.4519 41.5248L40.9774 34.7661L41.3942 35.775C42.6202 38.7114 45.4726 40.6225 48.6438 40.6225H50.3846C51.8312 40.6225 53 39.4496 53 37.9978C53 36.546 51.8312 35.3731 50.3846 35.3731H48.6438C47.5894 35.3731 46.6332 34.7333 46.2327 33.7572L45.7178 32.5269C44.5245 29.6479 42.1135 27.4497 39.1385 26.531L35.1582 25.3007C34.251 25.0218 33.3029 24.8742 32.3466 24.8742C29.813 24.8742 27.3774 25.883 25.5875 27.6875L23.6913 29.5823C22.6697 30.6075 22.6697 32.2726 23.6913 33.2979C24.713 34.3232 26.3721 34.3232 27.3937 33.2979L29.2817 31.4032L29.2736 31.395ZM26.4538 45.8719H21.6154C20.1687 45.8719 19 47.0449 19 48.4967C19 49.9485 20.1687 51.1214 21.6154 51.1214H27.3038C28.8567 51.1214 30.2625 50.2027 30.8918 48.7837L31.8317 46.6594L31.0553 46.1672C29.625 45.2732 28.5625 43.969 27.9577 42.4844L26.4538 45.8719Z" fill="#3B97A0"/>
</svg>
