<svg width="76" height="76" viewBox="0 0 76 76" fill="none" xmlns="http://www.w3.org/2000/svg">
<circle cx="38" cy="38" r="35.5" fill="#002746" stroke="#FCC962" stroke-width="5"/>
<path d="M20.35 23.4286C20.35 22.0853 21.4448 21 22.8 21H47.3H52.2C57.613 21 62 25.3487 62 30.7143C62 36.0799 57.613 40.4286 52.2 40.4286H49.75C49.75 44.4509 46.4578 47.7143 42.4 47.7143H27.7C23.6422 47.7143 20.35 44.4509 20.35 40.4286V23.4286ZM49.75 35.5714H52.2C54.9027 35.5714 57.1 33.3933 57.1 30.7143C57.1 28.0353 54.9027 25.8571 52.2 25.8571H49.75V35.5714ZM15.45 50.1429H54.65C56.0052 50.1429 57.1 51.2281 57.1 52.5714C57.1 53.9147 56.0052 55 54.65 55H15.45C14.0948 55 13 53.9147 13 52.5714C13 51.2281 14.0948 50.1429 15.45 50.1429Z" fill="#FCC962"/>
</svg>
