<svg width="50" height="50" viewBox="0 0 50 50" fill="none" xmlns="http://www.w3.org/2000/svg">
<path d="M13.3764 28.5058L21.1217 26.7573C21.2289 27.6011 21.5991 28.3631 22.1468 28.9579L19.4278 38.4403C19.1994 39.2367 19.6599 40.0673 20.4562 40.2957L21.0073 40.4537C21.8036 40.6821 22.6343 40.2216 22.8627 39.4253L25.2732 31.0187L27.6838 39.4256C27.9122 40.2219 28.7428 40.6824 29.5392 40.454L30.0903 40.296C30.8866 40.0676 31.3471 39.237 31.1187 38.4406L28.3051 28.6284C28.7979 27.9635 29.0897 27.1397 29.0897 26.2488C29.0897 25.8139 29.0203 25.3952 28.8919 25.0031L35.6625 23.4746C36.516 23.282 37.0241 22.4027 36.7649 21.567L33.5423 11.1795C33.2831 10.3438 32.3665 9.90648 31.5539 10.2307L10.3333 18.6966C9.60637 18.9866 9.22458 19.7868 9.45648 20.5343L9.61412 21.0424L8.55582 21.3707C7.76459 21.6162 7.32216 22.4566 7.56762 23.2478L8.52053 26.3194C8.76599 27.1107 9.60639 27.5531 10.3976 27.3076L11.4559 26.9793L11.6135 27.4871C11.8454 28.2346 12.613 28.6782 13.3764 28.5058ZM33.8084 11.0112L34.2607 10.8709L33.8084 11.0112L37.0795 21.5555C37.325 22.3468 38.1654 22.7892 38.9566 22.5437L40.7828 21.9772C41.574 21.7318 42.0164 20.8913 41.771 20.1001L38.4998 9.55582C38.2544 8.76459 37.414 8.32216 36.6227 8.56762L34.7966 9.13415C34.0053 9.37962 33.5629 10.22 33.8084 11.0112Z" fill="#FFFAF0" stroke="#3B97A0"/>
</svg>
