<svg width="76" height="76" viewBox="0 0 76 76" fill="none" xmlns="http://www.w3.org/2000/svg">
<circle cx="38" cy="38" r="35.5" fill="#002746" stroke="#FCC962" stroke-width="5"/>
<path d="M25.1429 20C22.3063 20 20 22.3063 20 25.1429V50.8571C20 53.6937 22.3063 56 25.1429 56H50.8571C53.6937 56 56 53.6937 56 50.8571V25.1429C56 22.3063 53.6937 20 50.8571 20H25.1429ZM35.4286 38H39.2857C40.708 38 41.8571 36.8509 41.8571 35.4286C41.8571 34.0062 40.708 32.8571 39.2857 32.8571H35.4286V38ZM39.2857 43.1429H35.4286V45.7143C35.4286 47.1366 34.2795 48.2857 32.8571 48.2857C31.4348 48.2857 30.2857 47.1366 30.2857 45.7143V40.5714V30.9286C30.2857 29.1527 31.7241 27.7143 33.5 27.7143H39.2857C43.5446 27.7143 47 31.1696 47 35.4286C47 39.6875 43.5446 43.1429 39.2857 43.1429Z" fill="#FCC962"/>
</svg>
