<svg width="76" height="76" viewBox="0 0 76 76" fill="none" xmlns="http://www.w3.org/2000/svg">
<circle cx="38" cy="38" r="35.5" fill="#002746" stroke="#FCC962" stroke-width="5"/>
<path d="M38.8072 19.4008C38.0141 18.8664 36.9859 18.8664 36.1928 19.4008L26.2127 26.125H17.525C15.5789 26.125 14 27.7207 14 29.6875V53.4375C14 55.4043 15.5789 57 17.525 57H57.475C59.4211 57 61 55.4043 61 53.4375V29.6875C61 27.7207 59.4211 26.125 57.475 26.125H48.7873L38.8072 19.4008ZM32.8 49.875C32.8 47.2551 34.9077 45.125 37.5 45.125C40.0923 45.125 42.2 47.2551 42.2 49.875V57H32.8V49.875ZM21.05 33.25H23.4C24.0462 33.25 24.575 33.7844 24.575 34.4375V39.1875C24.575 39.8406 24.0462 40.375 23.4 40.375H21.05C20.4037 40.375 19.875 39.8406 19.875 39.1875V34.4375C19.875 33.7844 20.4037 33.25 21.05 33.25ZM50.425 34.4375C50.425 33.7844 50.9537 33.25 51.6 33.25H53.95C54.5962 33.25 55.125 33.7844 55.125 34.4375V39.1875C55.125 39.8406 54.5962 40.375 53.95 40.375H51.6C50.9537 40.375 50.425 39.8406 50.425 39.1875V34.4375ZM21.05 42.75H23.4C24.0462 42.75 24.575 43.2844 24.575 43.9375V48.6875C24.575 49.3406 24.0462 49.875 23.4 49.875H21.05C20.4037 49.875 19.875 49.3406 19.875 48.6875V43.9375C19.875 43.2844 20.4037 42.75 21.05 42.75ZM50.425 43.9375C50.425 43.2844 50.9537 42.75 51.6 42.75H53.95C54.5962 42.75 55.125 43.2844 55.125 43.9375V48.6875C55.125 49.3406 54.5962 49.875 53.95 49.875H51.6C50.9537 49.875 50.425 49.3406 50.425 48.6875V43.9375ZM31.0375 32.0625C31.0375 30.3303 31.7184 28.6691 32.9303 27.4442C34.1423 26.2194 35.786 25.5312 37.5 25.5312C39.214 25.5312 40.8577 26.2194 42.0697 27.4442C43.2816 28.6691 43.9625 30.3303 43.9625 32.0625C43.9625 33.7947 43.2816 35.4559 42.0697 36.6808C40.8577 37.9056 39.214 38.5938 37.5 38.5938C35.786 38.5938 34.1423 37.9056 32.9303 36.6808C31.7184 35.4559 31.0375 33.7947 31.0375 32.0625ZM37.5 28.5C36.8537 28.5 36.325 29.0344 36.325 29.6875V32.0625C36.325 32.7156 36.8537 33.25 37.5 33.25H39.85C40.4962 33.25 41.025 32.7156 41.025 32.0625C41.025 31.4094 40.4962 30.875 39.85 30.875H38.675V29.6875C38.675 29.0344 38.1462 28.5 37.5 28.5Z" fill="#FCC962"/>
</svg>
