<svg width="76" height="76" viewBox="0 0 76 76" fill="none" xmlns="http://www.w3.org/2000/svg">
<circle cx="38" cy="38" r="35.5" fill="#FFFAF0" stroke="#3B97A0" stroke-width="5"/>
<path d="M30 25C30 23.3438 31.3438 22 33 22H43C44.6562 22 46 23.3438 46 25V54H41V49C41 47.3438 39.6562 46 38 46C36.3438 46 35 47.3438 35 49V54H30V25ZM21 28H28V54H21C19.3438 54 18 52.6562 18 51V42H23C23.55 42 24 41.55 24 41C24 40.45 23.55 40 23 40H18V36H23C23.55 36 24 35.55 24 35C24 34.45 23.55 34 23 34H18V31C18 29.3438 19.3438 28 21 28ZM55 28C56.6562 28 58 29.3438 58 31V34H53C52.45 34 52 34.45 52 35C52 35.55 52.45 36 53 36H58V40H53C52.45 40 52 40.45 52 41C52 41.55 52.45 42 53 42H58V51C58 52.6562 56.6562 54 55 54H48V28H55ZM37.5 26C36.95 26 36.5 26.45 36.5 27V28.5H35C34.45 28.5 34 28.95 34 29.5V30.5C34 31.05 34.45 31.5 35 31.5H36.5V33C36.5 33.55 36.95 34 37.5 34H38.5C39.05 34 39.5 33.55 39.5 33V31.5H41C41.55 31.5 42 31.05 42 30.5V29.5C42 28.95 41.55 28.5 41 28.5H39.5V27C39.5 26.45 39.05 26 38.5 26H37.5Z" fill="#3B97A0"/>
</svg>
