<svg width="76" height="76" viewBox="0 0 76 76" fill="none" xmlns="http://www.w3.org/2000/svg">
<circle cx="38" cy="38" r="35.5" fill="#FFFAF0" stroke="#3B97A0" stroke-width="5"/>
<path d="M36.475 23.0625C36.475 24.2033 35.5589 25.125 34.425 25.125C33.2911 25.125 32.375 24.2033 32.375 23.0625C32.375 21.9217 33.2911 21 34.425 21C35.5589 21 36.475 21.9217 36.475 23.0625ZM29.3 28.2188C28.1661 28.2188 27.25 27.2971 27.25 26.1562C27.25 25.0154 28.1661 24.0938 29.3 24.0938C30.4339 24.0938 31.35 25.0154 31.35 26.1562C31.35 27.2971 30.4339 28.2188 29.3 28.2188ZM27.25 29.25C28.3839 29.25 29.3 30.1717 29.3 31.3125H29.8125C30.6645 31.3125 31.35 32.0021 31.35 32.8594V33.8906C31.35 34.0002 31.3372 34.1098 31.318 34.2193C34.9567 35.7984 37.5 39.4465 37.5 43.6875C37.5 49.3852 32.9131 54 27.25 54C21.5869 54 17 49.3852 17 43.6875C17 39.4465 19.5433 35.7984 23.182 34.2193C23.1564 34.1162 23.15 34.0066 23.15 33.8906V32.8594C23.15 32.0021 23.8355 31.3125 24.6875 31.3125H25.2C25.2 30.1717 26.1161 29.25 27.25 29.25ZM27.25 49.875C30.6453 49.875 33.4 47.1035 33.4 43.6875C33.4 40.2715 30.6453 37.5 27.25 37.5C23.8547 37.5 21.1 40.2715 21.1 43.6875C21.1 47.1035 23.8547 49.875 27.25 49.875ZM39.55 43.6875C39.55 42.0182 39.2233 40.4326 38.6275 38.976C39.7102 36.8555 41.4975 35.1668 43.682 34.2129C43.6564 34.1098 43.65 34.0002 43.65 33.8842V32.8594C43.65 32.0021 44.3355 31.3125 45.1875 31.3125H45.7C45.7 30.1717 46.6161 29.25 47.75 29.25C48.8839 29.25 49.8 30.1717 49.8 31.3125H50.3125C51.1645 31.3125 51.85 32.0021 51.85 32.8594V33.8906C51.85 34.0002 51.8372 34.1098 51.818 34.2193C55.4567 35.7984 58 39.4465 58 43.6875C58 49.3852 53.4131 54 47.75 54C43.7781 54 40.3316 51.7248 38.6275 48.399C39.2233 46.9488 39.55 45.3568 39.55 43.6875ZM53.9 43.6875C53.9 40.2715 51.1453 37.5 47.75 37.5C44.3547 37.5 41.6 40.2715 41.6 43.6875C41.6 47.1035 44.3547 49.875 47.75 49.875C51.1453 49.875 53.9 47.1035 53.9 43.6875ZM40.575 25.125C39.4411 25.125 38.525 24.2033 38.525 23.0625C38.525 21.9217 39.4411 21 40.575 21C41.7089 21 42.625 21.9217 42.625 23.0625C42.625 24.2033 41.7089 25.125 40.575 25.125ZM45.7 28.2188C44.5661 28.2188 43.65 27.2971 43.65 26.1562C43.65 25.0154 44.5661 24.0938 45.7 24.0938C46.8339 24.0938 47.75 25.0154 47.75 26.1562C47.75 27.2971 46.8339 28.2188 45.7 28.2188Z" fill="#3B97A0"/>
</svg>
