<svg width="76" height="76" viewBox="0 0 76 76" fill="none" xmlns="http://www.w3.org/2000/svg">
<circle cx="38" cy="38" r="35.5" fill="#FFFAF0" stroke="#3B97A0" stroke-width="5"/>
<path d="M29.75 18.9219C29.75 17.8568 30.6138 17 31.6875 17H38.1458C39.2195 17 40.0833 17.8568 40.0833 18.9219V20.8438H40.7292C41.8029 20.8438 42.6667 21.7006 42.6667 22.7656C42.6667 23.8307 41.8029 24.6875 40.7292 24.6875H29.1042C28.0305 24.6875 27.1667 23.8307 27.1667 22.7656C27.1667 21.7006 28.0305 20.8438 29.1042 20.8438H29.75V18.9219ZM22 37.5C22 31.8385 26.6258 27.25 32.3333 27.25H42.6667C48.3742 27.25 53 31.8385 53 37.5V52.875C53 55.7018 50.6831 58 47.8333 58H27.1667C24.3169 58 22 55.7018 22 52.875V37.5ZM42.6667 37.5V45.1875C42.6667 46.6049 43.8211 47.75 45.25 47.75C46.6789 47.75 47.8333 46.6049 47.8333 45.1875V37.5C47.8333 36.0826 46.6789 34.9375 45.25 34.9375C43.8211 34.9375 42.6667 36.0826 42.6667 37.5Z" fill="#3B97A0"/>
</svg>
