<svg width="76" height="76" viewBox="0 0 76 76" fill="none" xmlns="http://www.w3.org/2000/svg">
<circle cx="38" cy="38" r="35.5" fill="#002746" stroke="#FCC962" stroke-width="5"/>
<path d="M37.5006 20C36.8804 20 36.268 20.1094 35.6861 20.3202L14.2108 28.2328C13.4835 28.5061 13.0012 29.2091 13.0012 29.998C13.0012 30.7869 13.4835 31.4899 14.2108 31.7633L18.6437 33.3958C17.3881 35.411 16.6761 37.7934 16.6761 40.3007V42.4956C16.6761 44.7139 15.8492 47.0025 14.9688 48.8069C14.4711 49.8223 13.9046 50.8221 13.2462 51.7438C13.0012 52.0796 12.9323 52.5171 13.0701 52.9154C13.2079 53.3138 13.5294 53.6106 13.9276 53.7121L18.8274 54.9619C19.149 55.0478 19.4935 54.9853 19.7768 54.8057C20.0601 54.626 20.2591 54.3292 20.3204 53.9933C20.9788 50.6502 20.6496 47.6508 20.1596 45.5028C19.9146 44.3937 19.5854 43.2611 19.126 42.2222V40.3007C19.126 37.9418 19.9069 35.7157 21.2621 33.9348C22.2497 32.7241 23.5283 31.7477 25.0289 31.1463L37.0489 26.3269C37.6767 26.0769 38.3887 26.3894 38.6337 27.0299C38.8787 27.6704 38.5724 28.3968 37.9446 28.6467L25.9246 33.4661C24.9753 33.8488 24.1408 34.4347 23.4594 35.1533L35.6784 39.6524C36.2603 39.8633 36.8728 39.9726 37.4929 39.9726C38.1131 39.9726 38.7256 39.8633 39.3074 39.6524L60.7903 31.7633C61.5177 31.4977 62 30.7869 62 29.998C62 29.2091 61.5177 28.5061 60.7903 28.2328L39.3151 20.3202C38.7332 20.1094 38.1207 20 37.5006 20ZM22.8009 49.3692C22.8009 52.1265 29.3852 54.9931 37.5006 54.9931C45.616 54.9931 52.2002 52.1265 52.2002 49.3692L51.0289 38.0121L40.1419 42.0269C39.2921 42.3394 38.3963 42.4956 37.5006 42.4956C36.6048 42.4956 35.7014 42.3394 34.8592 42.0269L23.9723 38.0121L22.8009 49.3692Z" fill="#FCC962"/>
</svg>
